<?xml version="1.0" encoding="UTF-8" standalone="no"?> <svg xmlns:inkscape="http://www.inkscape.org/namespaces/inkscape" xmlns:rdf="http://www.w3.org/1999/02/22-rdf-syntax-ns#" xmlns="http://www.w3.org/2000/svg" xmlns:cc="http://creativecommons.org/ns#" xmlns:dc="http://purl.org/dc/elements/1.1/" xmlns:sodipodi="http://sodipodi.sourceforge.net/DTD/sodipodi-0.dtd" id="svg2" sodipodi:docname="_svgclean2.svg" viewBox="0 0 196 174" inkscape:version="0.48.3.1 r9886"><path id="path4" inkscape:connector-curvature="0" d="m175 0-97.8 71.2c-7-3.4-15-5.2-23.2-5.2-29.8 0-54 24.2-54 54s24.2 54 54 54 54-24.2 54-54c0-1.6 0-3-0.2-4.6l13.2-9.4-5-9 10-7-2-12 8-6 16 7 6-5-2-13 8-6 8 4 5-3-1-9 6-5 12 6 6-4-4-34-90 65-4-7 91-66zm-121 74c25.4 0 46 20.6 46 46s-20.6 46-46 46-46-20.6-46-46 20.6-46 46-46zm-1 6c-22.6 0-41 18.4-41 41s18.4 41 41 41 41-18.4 41-41-18.4-41-41-41zm-11 32c8.8 0 16 7.2 16 16s-7.2 16-16 16-16-7.2-16-16 7.2-16 16-16z"></path><metadata id="metadata6"></metadata></svg> 